<svg xmlns="http://www.w3.org/2000/svg" viewBox="0 0 720 220" role="img" aria-labelledby="title desc">
  <title id="title">Daily rhythm panel</title>
  <desc id="desc">A stylized timeline of a focused day with mixed energy blocks.</desc>
  <rect width="720" height="220" rx="14" fill="#eaf5f1"/>
  <path d="M42 156c42-72 93-72 136 0s93 72 136 0 93-72 136 0 93 72 136 0" fill="none" stroke="#0d3b45" stroke-width="8" stroke-linecap="round" opacity=".18"/>
  <g transform="translate(44 46)">
    <rect x="0" y="70" width="24" height="60" rx="7" fill="#0f8b8d"/>
    <rect x="38" y="28" width="24" height="102" rx="7" fill="#5aa469"/>
    <rect x="76" y="52" width="24" height="78" rx="7" fill="#2f80ed"/>
    <rect x="114" y="88" width="24" height="42" rx="7" fill="#f2b84b"/>
    <rect x="152" y="18" width="24" height="112" rx="7" fill="#0f8b8d"/>
    <rect x="190" y="76" width="24" height="54" rx="7" fill="#ff6b4a"/>
    <rect x="228" y="42" width="24" height="88" rx="7" fill="#5aa469"/>
    <rect x="266" y="64" width="24" height="66" rx="7" fill="#2f80ed"/>
    <rect x="304" y="94" width="24" height="36" rx="7" fill="#d94b3d"/>
    <rect x="342" y="34" width="24" height="96" rx="7" fill="#0f8b8d"/>
    <rect x="380" y="62" width="24" height="68" rx="7" fill="#5aa469"/>
    <rect x="418" y="82" width="24" height="48" rx="7" fill="#f2b84b"/>
    <rect x="456" y="24" width="24" height="106" rx="7" fill="#2f80ed"/>
    <rect x="494" y="74" width="24" height="56" rx="7" fill="#ff6b4a"/>
    <rect x="532" y="50" width="24" height="80" rx="7" fill="#0f8b8d"/>
    <rect x="570" y="36" width="24" height="94" rx="7" fill="#5aa469"/>
    <rect x="608" y="88" width="24" height="42" rx="7" fill="#6d5dfc"/>
  </g>
  <g fill="#0d3b45" opacity=".42">
    <circle cx="54" cy="188" r="4"/>
    <circle cx="210" cy="188" r="4"/>
    <circle cx="366" cy="188" r="4"/>
    <circle cx="522" cy="188" r="4"/>
    <circle cx="678" cy="188" r="4"/>
  </g>
</svg>
